<svg id="Multicolor" xmlns="http://www.w3.org/2000/svg" viewBox="0 0 100 112"><defs><style>.cls-1{fill:#e8f4fa;}.cls-17,.cls-2,.cls-7{fill:#fff;}.cls-3{fill:none;}.cls-10,.cls-11,.cls-12,.cls-13,.cls-14,.cls-15,.cls-16,.cls-17,.cls-3,.cls-7{stroke:#191816;stroke-linejoin:round;}.cls-10,.cls-11,.cls-12,.cls-13,.cls-14,.cls-15,.cls-3,.cls-7{stroke-linecap:round;}.cls-15,.cls-16,.cls-4{fill:#00b8f0;}.cls-5{fill:#4acfff;}.cls-6{fill:#009fd9;}.cls-8{fill:#e0e0e0;}.cls-9{fill:#87898c;}.cls-10{fill:#daedf7;}.cls-11{fill:#ff6242;}.cls-12{fill:#fff48c;}.cls-13{fill:#6dd627;}.cls-14{fill:#ffe500;}</style></defs><title>10- web-programming-mouse-pointer</title><g id="Background"><g id="New_Symbol_29" data-name="New Symbol 29"><path class="cls-1" d="M90.34,56A40,40,0,1,0,13.9,72.5H86.77A39.7,39.7,0,0,0,90.34,56Z"/><path class="cls-2" d="M13.9,72.5a40,40,0,0,0,72.87,0Z"/><line class="cls-3" x1="11.34" y1="72.5" x2="89.34" y2="72.5"/><line class="cls-3" x1="6.84" y1="72.5" x2="9.34" y2="72.5"/><line class="cls-3" x1="91.34" y1="72.5" x2="93.84" y2="72.5"/></g></g><g id="Scene"><rect class="cls-4" x="23.49" y="41.37" width="48.3" height="34.5" rx="3.6" ry="3.6"/><path class="cls-5" d="M52.7,41.37H27.63a4.13,4.13,0,0,0-4.14,4.13V70.58Z"/><path class="cls-6" d="M37.29,62.75A2.77,2.77,0,0,1,34.53,60v-.45L31.77,62.3v.45a2.77,2.77,0,0,0,2.76,2.77H69a2.78,2.78,0,0,0,2.76-2.77Z"/><polygon class="cls-6" points="34.53 41.37 31.77 41.37 31.77 62.3 34.53 59.54 34.53 41.37"/><rect class="cls-3" x="23.49" y="41.37" width="48.3" height="34.5" rx="3.6" ry="3.6"/><path class="cls-7" d="M67.65,75.86a4.14,4.14,0,0,0,4.14-4.14V70.35H23.49v1.37a4.14,4.14,0,0,0,4.14,4.14Z"/><polygon class="cls-8" points="51.78 81.39 43.5 81.39 44.19 75.86 51.09 75.86 51.78 81.39"/><polygon class="cls-9" points="51.35 77.94 43.93 77.94 44.19 75.86 51.09 75.86 51.35 77.94"/><polygon class="cls-3" points="51.78 81.39 43.5 81.39 44.19 75.86 51.09 75.86 51.78 81.39"/><path class="cls-7" d="M56.61,84.15H38.67a2.75,2.75,0,0,1,2.76-2.76H53.85A2.76,2.76,0,0,1,56.61,84.15Z"/><path class="cls-10" d="M34.53,36.54h40a0,0,0,0,1,0,0V60.35a2.4,2.4,0,0,1-2.4,2.4H36.93a2.4,2.4,0,0,1-2.4-2.4V36.54A0,0,0,0,1,34.53,36.54Z"/><path class="cls-7" d="M36.93,28.25H72.15a2.4,2.4,0,0,1,2.4,2.4v5.88a0,0,0,0,1,0,0h-40a0,0,0,0,1,0,0V30.65A2.4,2.4,0,0,1,36.93,28.25Z"/><circle class="cls-11" cx="38.67" cy="32.4" r="1.38"/><circle class="cls-12" cx="44.19" cy="32.4" r="1.38"/><circle class="cls-13" cx="49.71" cy="32.4" r="1.38"/><rect class="cls-13" x="46.95" y="44.81" width="5.52" height="5.52" rx="1" ry="1"/><rect class="cls-11" x="55.92" y="44.81" width="5.52" height="5.52" rx="1" ry="1"/><rect class="cls-13" x="64.89" y="44.81" width="5.52" height="5.52" rx="1" ry="1"/><rect class="cls-11" x="46.95" y="53.1" width="5.52" height="5.52" rx="1" ry="1"/><rect class="cls-13" x="55.92" y="53.1" width="5.52" height="5.52" rx="1" ry="1"/><rect class="cls-14" x="64.89" y="53.1" width="5.52" height="5.52" rx="1" ry="1"/><rect class="cls-15" x="38.67" y="39.3" width="5.52" height="2.76" rx="1" ry="1"/><rect class="cls-16" x="46.95" y="39.3" width="23.46" height="2.76" rx="1" ry="1"/><line class="cls-3" x1="38.67" y1="44.81" x2="44.19" y2="44.81"/><line class="cls-3" x1="38.67" y1="47.57" x2="44.19" y2="47.57"/><line class="cls-3" x1="38.67" y1="50.34" x2="44.19" y2="50.34"/><line class="cls-3" x1="38.67" y1="53.1" x2="44.19" y2="53.1"/><line class="cls-3" x1="38.67" y1="55.85" x2="44.19" y2="55.85"/><line class="cls-3" x1="38.67" y1="58.61" x2="42.12" y2="58.61"/><path class="cls-17" d="M83.52,73.72c-.2.73-.6.76-.89.06L78.1,62.91c-.29-.7,0-1,.75-.74L89.71,66.7c.7.29.67.69-.06.89l-3.48,1a2.67,2.67,0,0,0-1.7,1.69Z"/><circle class="cls-10" cx="47.64" cy="73.1" r="0.57"/></g></svg>