<svg id="Multicolor" xmlns="http://www.w3.org/2000/svg" viewBox="0 0 100 112"><defs><style>.cls-1{fill:#e8f4fa;}.cls-2,.cls-9{fill:#fff;}.cls-3{fill:none;}.cls-13,.cls-14,.cls-15,.cls-16,.cls-17,.cls-3,.cls-5,.cls-6,.cls-9{stroke:#191816;stroke-linecap:round;stroke-linejoin:round;}.cls-4,.cls-6{fill:#f0f0f0;}.cls-5{fill:#00b8f0;}.cls-13,.cls-7{fill:#ffda8f;}.cls-8{fill:#ffbe3d;}.cls-10{fill:#ffe9bd;}.cls-11,.cls-14{fill:#614b44;}.cls-12{fill:#947063;}.Graphic-Style-2{fill:#191816;opacity:0.15;}.cls-15{fill:#bf8df2;}.cls-16{fill:#6dd627;}.cls-17{fill:#ff8a14;}</style></defs><title>36- teacher-male-asian-2</title><g id="Background"><path class="cls-1" d="M90,56A40,40,0,1,0,13.56,72.5H86.43A39.85,39.85,0,0,0,90,56Z"/><path class="cls-2" d="M13.56,72.5a40,40,0,0,0,72.87,0Z"/><line class="cls-3" x1="10.99" y1="72.5" x2="88.99" y2="72.5"/><line class="cls-3" x1="6.49" y1="72.5" x2="8.99" y2="72.5"/><line class="cls-3" x1="90.99" y1="72.5" x2="93.49" y2="72.5"/><line class="cls-3" x1="6.74" y1="72.5" x2="9.24" y2="72.5"/><line class="cls-3" x1="91.24" y1="72.5" x2="93.74" y2="72.5"/></g><g id="Scene"><path class="cls-4" d="M56,48.52a15.61,15.61,0,0,0-15.5,15.6V72.5h31V64.12A15.61,15.61,0,0,0,56,48.52Z"/><path class="cls-2" d="M56,48.52a15.61,15.61,0,0,0-15.5,15.6V68.6a15.5,15.5,0,1,1,31,0V64.12A15.61,15.61,0,0,0,56,48.52Z"/><path class="cls-3" d="M56,48.52a15.61,15.61,0,0,0-15.5,15.6V72.5h31V64.12A15.61,15.61,0,0,0,56,48.52Z"/><path class="cls-5" d="M59.77,64.21,56,52.83v0L52.22,64.21h0a2.82,2.82,0,0,0,.53,2.54L56,71l3.26-4.24a2.79,2.79,0,0,0,.52-2.54Z"/><path class="cls-5" d="M53.21,54.09l.9,1.35a2.26,2.26,0,0,0,3.75,0l.9-1.35L56,52.83Z"/><path class="cls-6" d="M62.51,55.74l-.77-5.41a4.12,4.12,0,0,0-2.12-2.82h0c-.58-.14-1.18,1-1.78.9L56,48.72h0l-1.82-.31c-.6.07-1.2-1-1.79-.9h0a4.12,4.12,0,0,0-2.12,2.82l-.77,5.41a.44.44,0,0,0,.62.47L56,53.53h0l5.89,2.68A.44.44,0,0,0,62.51,55.74Z"/><polygon class="cls-7" points="52.49 45.73 52.49 51.13 55.99 53.47 59.49 51.13 59.49 45.73 52.49 45.73"/><path class="cls-8" d="M52.49,49a9.89,9.89,0,0,0,7,0V45.73h-7Z"/><polygon class="cls-3" points="52.49 45.73 52.49 51.13 55.99 53.47 59.49 51.13 59.49 45.73 52.49 45.73"/><path class="cls-6" d="M71.51,64.6v1.81A3.61,3.61,0,0,0,75.12,70a3,3,0,0,1,0,6,9.64,9.64,0,0,1-9.63-9.63V64.6"/><rect class="cls-9" x="77.9" y="62.87" width="2.5" height="8.5" rx="1" ry="1"/><path class="cls-7" d="M81.84,75.77a1.2,1.2,0,0,1-1.15.87H77.91A2.89,2.89,0,0,1,75,73.75V72.31a2.89,2.89,0,0,1,2.89-2.89h2.78a1.2,1.2,0,0,1,1.15.86A9.68,9.68,0,0,1,81.84,75.77Z"/><path class="cls-10" d="M76.28,76.14a2.88,2.88,0,0,1-.06-.59V74.11a2.89,2.89,0,0,1,2.89-2.89h3c-.06-.31-.14-.63-.23-.94a1.2,1.2,0,0,0-1.15-.86H77.91A2.89,2.89,0,0,0,75,72.31v1.44A2.91,2.91,0,0,0,76.28,76.14Z"/><path class="cls-3" d="M81.84,75.77a1.2,1.2,0,0,1-1.15.87H77.91A2.89,2.89,0,0,1,75,73.75V72.31a2.89,2.89,0,0,1,2.89-2.89h2.78a1.2,1.2,0,0,1,1.15.86A9.68,9.68,0,0,1,81.84,75.77Z"/><line class="cls-3" x1="65.49" y1="65" x2="65.49" y2="61.91"/><rect class="cls-9" x="60.4" y="74.87" width="2.5" height="8.5" rx="1" ry="1" transform="translate(99.36 -13.82) rotate(60.01)"/><rect class="cls-9" x="65.7" y="78.31" width="2.5" height="8.5" rx="1" ry="1" transform="translate(45.68 -21.59) rotate(27.49)"/><path class="cls-11" d="M62.14,21.7C49,16.5,43.49,23.13,43.49,32c0,6.47,5.56,11.75,12.5,12,6.95-.24,12.5-5.52,12.5-12C68.49,23.13,64.82,20.74,62.14,21.7Z"/><path class="cls-12" d="M62.14,25.33c2.44-.87,5.7,1,6.27,8.06A12.81,12.81,0,0,0,68.49,32c0-8.87-3.67-11.26-6.35-10.3C49,16.5,43.49,23.13,43.49,32a11.42,11.42,0,0,0,.11,1.55C44.43,25.78,50.05,20.55,62.14,25.33Z"/><path class="cls-3" d="M62.14,21.7C49,16.5,43.49,23.13,43.49,32c0,6.47,5.56,11.75,12.5,12,6.95-.24,12.5-5.52,12.5-12C68.49,23.13,64.82,20.74,62.14,21.7Z"/><path class="cls-13" d="M68,37a2,2,0,0,1-2,2h-.12a10,10,0,0,1-19.76,0H46a2,2,0,0,1,0-4s11-.14,13.18-9.63C58.87,31.53,66,35,66,35A2,2,0,0,1,68,37Z"/><path class="cls-3" d="M61.49,36a1.63,1.63,0,0,0-3,0"/><path class="cls-3" d="M53.5,36a1.63,1.63,0,0,0-3,0"/><path class="cls-8" d="M51.49,39.76a1.26,1.26,0,1,1-1.25-1.12A1.18,1.18,0,0,1,51.49,39.76Z"/><path class="cls-8" d="M63,39.76a1.26,1.26,0,1,1-1.25-1.12A1.18,1.18,0,0,1,63,39.76Z"/><path class="cls-3" d="M53,42a4.35,4.35,0,0,0,6,0"/><path class="cls-3" d="M49,33.5h5a1,1,0,0,1,1,1v1a3,3,0,0,1-3,3H51a3,3,0,0,1-3-3v-1A1,1,0,0,1,49,33.5Z"/><path class="cls-3" d="M58,33.5h5a1,1,0,0,1,1,1v1a3,3,0,0,1-3,3H60a3,3,0,0,1-3-3v-1A1,1,0,0,1,58,33.5Z"/><line class="cls-3" x1="54.99" y1="35" x2="56.99" y2="35"/><line class="cls-13" x1="47.99" y1="35" x2="45.99" y2="35"/><line class="cls-13" x1="65.99" y1="35" x2="63.99" y2="35"/><path class="cls-14" d="M53,32v2.5a10.76,10.76,0,0,0,6.18-10"/><ellipse class="Graphic-Style-2" cx="32.9" cy="79.92" rx="19.5" ry="1.5"/><rect class="cls-15" x="16.05" y="56.15" width="33.69" height="23.47" rx="2" ry="2"/><rect class="cls-9" x="18.46" y="58.56" width="28.88" height="18.65"/><path class="cls-7" d="M36.25,54.14a1.2,1.2,0,0,1,.86,1.16v2.78A2.89,2.89,0,0,1,34.22,61H32.78a2.89,2.89,0,0,1-2.89-2.89V55.3a1.2,1.2,0,0,1,.87-1.16A9.68,9.68,0,0,1,36.25,54.14Z"/><path class="cls-10" d="M36.25,54.14a9.68,9.68,0,0,0-5.49,0,1.2,1.2,0,0,0-.87,1.16v2.4a1.2,1.2,0,0,1,.87-1.15,9.68,9.68,0,0,1,5.49,0,1.2,1.2,0,0,1,.86,1.15V55.3A1.2,1.2,0,0,0,36.25,54.14Z"/><path class="cls-3" d="M36.25,54.14a1.2,1.2,0,0,1,.86,1.16v2.78A2.89,2.89,0,0,1,34.22,61H32.78a2.89,2.89,0,0,1-2.89-2.89V55.3a1.2,1.2,0,0,1,.87-1.16A9.68,9.68,0,0,1,36.25,54.14Z"/><circle class="cls-16" cx="26.4" cy="69.5" r="3"/><polygon class="cls-17" points="38.11 64.08 42.98 72.5 33.25 72.5 38.11 64.08"/></g></svg>